<svg xmlns="http://www.w3.org/2000/svg" viewBox="0 0 120 150">
  <path d="M10,110 L30,110 L30,150 L10,150 Z" style="fill-opacity:0.7" />
  <path d="M30,110 L40,105 L40,145 L30,150 Z" style="fill-opacity:0.5" />
  <path d="M10,110 L30,110 L40,105 L20,105 Z" style="fill-opacity:0.25" />
  <path d="M50,90 L70,90 L70,150 L50,150 Z" style="fill-opacity:0.7" />
  <path d="M70,90 L80,85 L80,145 L70,150 Z" style="fill-opacity:0.5" />
  <path d="M50,90 L70,90 L80,85 L60,85 Z" style="fill-opacity:0.25" />
  <path d="M90,50 L110,50 L110,150 L90,150 Z" style="fill-opacity:0.7" />
  <path d="M110,50 L120,45 L120,145 L110,150 Z" style="fill-opacity:0.5" />
  <path d="M90,50 L110,50 L120,45 L100,45 Z" style="fill-opacity:0.25" />
</svg>