<?xml version="1.0" ?>
<svg 
enable-background="new 0 0 176.2576 212.2773" 
id="yelp" 
version="1.1" 
viewBox="0 0 176.2576 212.2773" 
xml:space="preserve" 
xmlns="http://www.w3.org/2000/svg" 
xmlns:xlink="http://www.w3.org/1999/xlink">
<g>
<path d="M25.4316,30.5313c0.7208,1.09,1.5312,2.1212,2.3184,3.168c14.5388,19.34,29.078,38.6756,43.6228,58.008   c0.2188,0.2868,0.4396,0.58,0.7092,0.82c1.496,1.3108,3.1952,2.3087,5.16,2.7656c3.2364,0.756,6.1796,0.254,8.3964-2.3612   c2.0664-2.4397,3.1916-5.324,3.176-8.4764c-0.0976-23.0488-0.2616-46.092-0.3868-69.1408   c-0.0076-1.6736-0.1796-3.3065-0.5684-4.9276c-0.4844-1.996-1.0956-3.9472-2.1912-5.7208   c-0.5332-0.8592-1.1584-1.6464-2.0332-2.1972c-1.3828-0.8712-2.846-1.594-4.424-2.0744C78.7576,0.2581,78.2988,0.1309,77.8416,0   h-1.8712c-0.0408,0.0333-0.082,0.0901-0.1308,0.0997c-2.7832,0.672-5.4256,1.744-8.1032,2.7168   c-12.416,4.4904-24.8304,8.9884-37.2424,13.492c-2.1288,0.7696-3.9904,1.9435-5.5236,3.598c-1.6112,1.738-2.074,3.742-1.568,6.002   C23.7792,27.5781,24.49,29.1077,25.4316,30.5313z" fill="#EF5350"/>
<path d="M68.7556,131.1445c0.7736-0.586,1.2676-1.4024,1.6348-2.2852c0.42-1.0076,0.5784-2.07,0.7344-3.1404   c0.3868-2.6172-0.412-4.8516-2.1892-6.7932c-1.3204-1.4372-2.8692-2.5857-4.6272-3.4568   c-15.1796-7.4884-30.3536-14.9844-45.5508-22.4316c-2.322-1.1368-4.8496-1.6796-7.4588-1.7288   c-1.084-0.0192-2.1524,0.1155-3.1132,0.674c-1.6544,0.9688-3.0256,2.2264-4.0392,3.836c-0.5392,0.8572-0.9004,1.7732-0.9784,2.7928   c-0.2092,2.7012-0.4416,5.3967-0.668,8.096c-0.3712,4.406-0.75,8.8084-1.1172,13.2148c-0.3672,4.4059-0.7148,8.8124-1.09,13.2148   C0.2576,133.5393,0.1016,133.9337,0,134.332v4.1445c0.1092,0.4532,0.2244,0.9024,0.33,1.3555   c0.2364,0.9925,0.3924,2.004,0.7148,2.9689c0.4728,1.422,1.5392,2.2772,3.0116,2.664c1.4552,0.3828,2.926,0.332,4.3772,0.0548   c1.1912-0.2268,2.3552-0.59,3.5388-0.8557c2.592-0.5739,5.1956-1.1247,7.7892-1.6835c14.836-3.1992,29.666-6.3904,44.498-9.6056   C65.9392,133.0117,67.41,132.168,68.7556,131.1445z" fill="#AB47BC"/>
<path d="M172.0528,150.6757c-0.7188-0.3124-1.4844-0.5348-2.2344-0.7772c-0.4844-0.1564-0.9824-0.25-1.4708-0.4025   c-16.8068-5.2655-33.6112-10.5311-50.418-15.8007c-1.83-0.5704-3.676-0.6092-5.5272-0.1716   c-2.9024,0.6912-4.9612,2.7576-5.2952,5.402c-0.33,2.6252,0.1428,5.1448,1.5332,7.422   c8.7796,14.344,17.5996,28.668,26.3772,43.0156c1.2536,2.0548,2.8572,3.7696,4.7324,5.2656   c0.6112,0.4884,1.2872,0.9064,1.9724,1.2852c1.1936,0.664,2.4688,0.8828,3.848,0.6484c2.2008-0.3788,4.1288-1.328,5.9216-2.5665   c0.428-0.2927,0.8204-0.6835,1.1252-1.1015c6.8924-9.5896,13.7616-19.1912,20.662-28.7772c1.328-1.84,2.1484-3.8712,2.7108-6.0272   c0.1172-0.4456,0.176-0.9144,0.2676-1.3672v-1.8244C175.668,152.7149,174.0212,151.5273,172.0528,150.6757z" fill="#29B6F6"/>
<path d="M81.4608,143.1953c-2.914,0.2384-5.4492,1.4492-7.3904,3.5196   c-11.7344,12.5236-23.4164,25.09-35.086,37.664c-1.9084,2.0548-3.1544,4.504-3.8848,7.1916c-0.256,0.9412-0.346,1.91-0.0488,2.8672   c0.3828,1.25,0.908,2.4412,1.7168,3.492c1.0996,1.4296,2.498,2.5,4.25,3.0392c10.9764,3.3944,21.9548,6.7732,32.9392,10.1404   c1.4472,0.4456,2.9336,0.7816,4.3984,1.168h4.418c0.1876-0.0584,0.3672-0.1364,0.5588-0.16   c2.2284-0.3088,3.6152-1.582,4.3164-3.6173c0.3828-1.1055,0.5704-2.2539,0.5704-3.4219c0-1.1328-0.0296-2.2656-0.0156-3.3984   c0.0976-6.6016,0.2108-13.2032,0.3104-19.8084c0.158-10.164,0.334-20.332,0.4552-30.5c0.0292-2.3164-0.8028-4.3984-2.4336-6.1096   C85.1776,143.832,83.4824,143.0313,81.4608,143.1953z" fill="#FFEE58"/>
<path d="M113.8536,116.1877c0.9824-0.1564,2.0388-0.2228,3.0332-0.5c16.568-4.7032,33.1268-9.4376,49.6912-14.1604   c2.6544-0.7556,4.9572-2.1228,7.0684-3.832c1.91-1.5448,2.584-3.5564,2.3748-5.906c-0.1464-1.6056-0.5096-3.1624-1.1328-4.6564   c-0.166-0.4004-0.3984-0.7969-0.6836-1.1268c-6.4236-7.4004-12.8612-14.7892-19.2888-22.1856   c-1.8672-2.1485-3.7012-4.3285-5.5508-6.4904c-1.0352-1.2108-2.2872-2.1384-3.8124-2.6856   c-2.4572-0.8788-4.7268-0.574-6.7952,1.0195c-0.9864,0.76-1.824,1.6585-2.5212,2.676c-0.4084,0.5937-0.7756,1.2169-1.17,1.824   c-9.4456,14.5021-18.8848,29.004-28.338,43.4981c-1.0156,1.5608-1.5292,3.256-1.6016,5.084   c-0.1308,3.5432,1.92,6.1956,5.4648,6.9844C111.6328,115.9609,112.7088,116.0313,113.8536,116.1877z" fill="#66BB6A"/>
</g>
</svg>